<?xml version="1.0" standalone="no"?>
<!DOCTYPE svg PUBLIC "-//W3C//DTD SVG 20010904//EN"
 "http://www.w3.org/TR/2001/REC-SVG-20010904/DTD/svg10.dtd">
<svg version="1.0" xmlns="http://www.w3.org/2000/svg"
 width="1024.000000pt" height="1024.000000pt" viewBox="0 0 1024.000000 1024.000000"
 preserveAspectRatio="xMidYMid meet">

<g transform="translate(0.000000,1024.000000) scale(0.100000,-0.100000)"
fill="#000000" stroke="none">
<path d="M1331 5960 c-49 -12 -83 -40 -108 -90 l-23 -44 0 -662 c0 -628 1
-662 18 -677 16 -15 48 -17 238 -17 158 0 223 3 232 12 16 16 16 210 0 226 -8
8 -50 12 -123 12 -73 0 -115 4 -123 12 -19 19 -17 918 1 918 8 0 58 -46 112
-102 277 -289 862 -871 888 -885 42 -21 124 -13 167 17 18 13 41 41 51 64 17
38 19 77 19 618 0 511 -2 578 -16 592 -13 14 -49 16 -239 16 -264 0 -245 10
-245 -134 0 -126 0 -126 140 -126 64 0 111 -4 115 -10 9 -14 13 -700 4 -700
-3 0 -212 209 -463 464 -258 263 -471 471 -490 480 -43 20 -111 28 -155 16z"/>
<path d="M3210 5235 l0 -535 95 0 95 0 0 377 0 377 111 -170 c61 -93 172 -262
247 -376 l137 -208 93 0 92 0 0 535 0 535 -90 0 -90 0 0 -377 0 -378 -252 378
-251 377 -94 0 -93 0 0 -535z"/>
<path d="M5950 5600 l0 -100 -60 0 -60 0 0 -75 0 -74 59 4 60 5 3 -258 3 -257
27 -45 c41 -71 91 -94 216 -98 l102 -4 0 71 0 71 -60 0 c-51 0 -65 4 -85 25
l-25 24 0 226 c0 124 1 228 3 233 1 4 39 7 85 7 l82 0 0 72 0 72 -87 3 -88 3
1 98 1 97 -89 0 -88 0 0 -100z"/>
<path d="M4473 5506 c-96 -31 -180 -101 -223 -185 -62 -123 -66 -310 -8 -424
25 -49 92 -123 139 -153 99 -62 281 -73 389 -22 84 39 148 110 174 196 7 22 6
22 -81 22 -87 0 -89 0 -106 -29 -27 -45 -79 -73 -151 -78 -77 -7 -122 7 -165
49 -40 39 -59 74 -67 127 l-7 41 297 0 296 0 0 43 c0 245 -147 415 -365 424
-49 2 -96 -2 -122 -11z m168 -137 c75 -26 119 -78 134 -161 l7 -38 -206 0
c-235 0 -224 -5 -182 86 46 99 149 145 247 113z"/>
<path d="M6670 5506 c-192 -54 -302 -221 -287 -436 13 -181 117 -320 276 -367
82 -23 219 -15 293 19 185 85 270 311 203 536 -56 186 -285 303 -485 248z
m173 -147 c60 -16 122 -83 142 -154 37 -127 1 -270 -84 -330 -39 -27 -50 -30
-121 -30 -71 0 -82 3 -121 30 -63 44 -92 107 -97 210 -7 134 30 214 119 259
57 28 101 32 162 15z"/>
<path d="M7597 5506 c-45 -17 -63 -29 -104 -75 l-33 -36 0 37 c0 65 -4 68 -91
68 l-79 0 0 -400 0 -400 90 0 89 0 3 253 c3 284 7 301 82 361 35 29 44 31 117
31 l79 0 0 81 c0 76 -2 82 -22 88 -37 9 -90 6 -131 -8z"/>
<path d="M8175 5511 c-16 -4 -44 -15 -61 -24 -32 -17 -84 -71 -84 -88 0 -5 -4
-9 -10 -9 -5 0 -10 25 -10 55 l0 55 -80 0 -80 0 0 -400 0 -400 84 0 84 0 4
248 c3 232 4 249 25 288 44 82 117 121 209 111 l54 -6 0 83 0 83 -37 7 c-45 7
-58 6 -98 -3z"/>
<path d="M8587 5506 c-106 -31 -174 -101 -192 -199 l-7 -37 80 0 81 0 16 35
c25 52 89 79 169 73 95 -8 136 -45 136 -123 0 -49 -28 -63 -161 -80 -160 -21
-207 -32 -256 -61 -124 -72 -151 -240 -56 -345 46 -51 75 -66 154 -78 111 -18
225 10 292 72 l27 26 0 -44 0 -45 86 0 86 0 -4 313 c-3 273 -5 317 -21 352
-44 99 -132 145 -287 151 -61 2 -112 -1 -143 -10z m273 -549 c-26 -90 -113
-143 -220 -135 -82 6 -115 36 -115 107 0 85 59 124 205 137 47 4 96 10 110 14
24 6 25 4 28 -39 2 -25 -2 -63 -8 -84z"/>
<path d="M5048 5433 c44 -61 198 -291 215 -319 4 -7 -55 -102 -132 -213 l-139
-201 101 0 102 0 85 130 c47 71 87 130 90 130 3 0 43 -58 90 -130 l85 -130
103 0 c80 0 101 3 96 13 -5 6 -66 97 -137 200 -75 109 -126 194 -123 202 3 8
62 98 131 200 l126 185 -99 0 -99 0 -83 -125 c-45 -68 -86 -122 -90 -120 -5 3
-43 59 -85 125 l-77 120 -104 0 -104 0 48 -67z"/>
</g>
</svg>
